<?xml version="1.0" standalone="no"?>
<!DOCTYPE svg PUBLIC "-//W3C//DTD SVG 20010904//EN"
 "http://www.w3.org/TR/2001/REC-SVG-20010904/DTD/svg10.dtd">
<svg version="1.0" xmlns="http://www.w3.org/2000/svg"
 width="2160.000000pt" height="2160.000000pt" viewBox="0 0 2160.000000 2160.000000"
 preserveAspectRatio="xMidYMid meet">
<metadata>
Created by potrace 1.14, written by Peter Selinger 2001-2017
</metadata>
<g transform="translate(0.000000,2160.000000) scale(0.100000,-0.100000)"
fill="#000000" stroke="none">
<path d="M10418 21575 c-1 -1 -77 -6 -168 -9 -91 -4 -181 -8 -200 -10 -19 -2
-75 -7 -125 -11 -49 -3 -103 -8 -120 -9 -16 -2 -66 -6 -110 -10 -44 -4 -91 -9
-105 -11 -38 -5 -120 -15 -165 -20 -36 -4 -185 -24 -290 -40 -22 -3 -80 -13
-130 -22 -49 -8 -103 -17 -120 -20 -16 -2 -73 -13 -125 -23 -52 -11 -108 -21
-125 -24 -16 -3 -79 -17 -140 -30 -60 -14 -121 -27 -135 -30 -66 -12 -415
-103 -585 -152 -389 -113 -960 -317 -1236 -443 -149 -67 -181 -81 -184 -81
-14 0 -520 -249 -650 -319 -161 -89 -333 -186 -357 -202 -14 -11 -29 -19 -32
-19 -4 0 -23 -11 -44 -24 -20 -13 -80 -49 -132 -81 -208 -128 -596 -390 -715
-483 -5 -4 -35 -25 -65 -47 -30 -22 -57 -42 -60 -45 -3 -3 -23 -18 -45 -35
-99 -73 -485 -386 -541 -440 -6 -5 -41 -37 -79 -70 -156 -139 -212 -192 -460
-440 -261 -261 -301 -303 -430 -449 -39 -44 -77 -87 -85 -96 -8 -8 -49 -56
-90 -105 -41 -50 -77 -92 -80 -95 -3 -3 -57 -70 -121 -150 -277 -348 -508
-677 -777 -1106 -18 -28 -32 -56 -32 -62 0 -5 -4 -12 -8 -14 -8 -3 -166 -276
-257 -443 -72 -132 -243 -480 -315 -640 -39 -88 -82 -184 -96 -213 -13 -29
-24 -55 -24 -57 0 -3 -9 -24 -19 -48 -11 -23 -41 -96 -66 -162 -26 -66 -57
-147 -70 -180 -96 -246 -242 -702 -320 -1000 -62 -234 -139 -564 -151 -645 -3
-19 -7 -43 -10 -52 -3 -10 -7 -30 -10 -45 -2 -16 -9 -48 -14 -73 -5 -25 -11
-58 -14 -75 -2 -16 -14 -88 -26 -160 -29 -179 -28 -173 -35 -234 -3 -30 -8
-57 -9 -60 -2 -3 -7 -37 -10 -76 -4 -38 -9 -83 -11 -100 -6 -42 -15 -119 -21
-190 -3 -33 -7 -76 -9 -95 -28 -272 -40 -562 -40 -985 0 -387 7 -585 30 -860
3 -38 8 -97 10 -130 5 -53 9 -91 20 -175 2 -14 6 -56 10 -94 8 -88 14 -135 20
-166 3 -14 7 -43 10 -65 39 -329 156 -911 259 -1287 9 -32 23 -84 31 -115 64
-240 256 -820 324 -978 5 -11 30 -74 57 -140 166 -415 435 -975 624 -1295 16
-28 30 -55 30 -60 0 -6 5 -10 10 -10 6 0 10 -4 10 -10 0 -10 159 -280 170
-290 3 -3 18 -26 33 -52 44 -76 291 -441 390 -578 173 -237 426 -555 580 -730
214 -243 285 -319 532 -565 298 -298 318 -316 590 -554 30 -26 237 -197 314
-260 23 -18 90 -70 149 -114 59 -45 109 -84 112 -88 13 -15 354 -254 520 -364
255 -168 539 -340 755 -455 44 -24 85 -46 90 -51 13 -9 512 -259 518 -259 3 0
47 -20 98 -44 88 -41 177 -80 389 -169 225 -95 677 -255 945 -336 133 -39 244
-72 264 -76 9 -2 43 -11 76 -20 185 -51 513 -127 710 -164 61 -12 121 -23 135
-26 74 -14 162 -29 240 -40 24 -4 47 -8 50 -10 3 -2 34 -6 70 -10 36 -4 72 -8
80 -10 8 -1 33 -5 55 -9 40 -6 53 -8 175 -21 36 -4 79 -9 95 -11 17 -2 55 -6
85 -9 135 -13 159 -15 220 -20 429 -36 1170 -41 1605 -10 91 6 210 16 245 20
19 2 64 6 100 10 36 3 81 7 100 9 88 11 138 17 175 21 22 2 90 11 150 20 61 9
126 19 145 21 19 3 73 12 120 20 47 8 101 17 120 20 218 34 711 146 1007 229
406 114 946 301 1230 426 24 11 45 19 48 19 2 0 34 13 69 30 36 16 91 40 123
54 224 94 685 327 943 476 63 37 131 75 150 86 19 10 37 22 38 27 2 4 7 7 12
7 28 0 608 381 807 529 34 25 71 53 83 61 70 48 463 359 521 412 14 12 47 41
74 63 28 22 57 47 65 55 9 8 49 44 90 80 40 36 96 85 124 110 67 59 565 557
641 641 33 36 87 96 120 133 33 38 71 81 85 96 14 15 34 38 45 52 78 93 120
144 125 148 3 3 21 25 40 50 19 25 37 47 41 50 10 8 250 318 322 417 121 166
356 514 433 640 340 562 489 844 726 1373 159 355 373 935 457 1240 12 41 33
116 47 165 60 210 183 721 199 825 2 14 16 88 30 165 15 77 28 156 31 175 2
19 9 60 14 90 14 83 30 194 45 312 2 18 7 53 10 78 3 25 7 68 10 95 2 28 7 66
9 85 3 19 8 71 11 115 4 44 8 98 10 120 3 22 7 81 10 130 3 50 8 119 13 155 9
83 9 944 -1 1115 -9 163 -16 250 -33 460 -7 91 -20 206 -29 275 -3 19 -7 61
-11 93 -3 32 -7 68 -10 80 -4 21 -7 47 -19 137 -3 25 -15 97 -26 160 -11 63
-22 131 -25 150 -3 19 -12 69 -20 110 -9 41 -18 86 -20 100 -6 30 -27 133 -53
255 -24 109 -94 392 -123 495 -38 138 -79 274 -106 360 -14 47 -27 88 -28 93
-1 4 -2 8 -3 10 0 1 -32 92 -70 202 -65 188 -153 427 -185 498 -7 18 -24 57
-36 87 -36 89 -149 348 -192 440 -97 205 -315 634 -338 665 -5 6 -23 37 -41
70 -17 33 -86 150 -152 260 -164 273 -344 546 -554 834 -24 33 -78 105 -122
162 -20 25 -49 63 -66 85 -82 107 -311 385 -370 450 -5 6 -39 44 -75 84 -127
144 -188 208 -430 450 -255 255 -319 316 -460 440 -47 41 -90 80 -96 85 -6 6
-33 29 -60 52 -27 23 -59 50 -70 60 -233 200 -616 488 -943 708 -164 110 -672
425 -686 425 -2 0 -26 13 -52 28 -236 139 -799 411 -1153 557 -247 102 -721
273 -900 325 -298 86 -455 131 -473 135 -12 2 -76 18 -142 34 -112 28 -389 89
-480 107 -22 4 -44 8 -50 10 -5 1 -28 5 -50 9 -22 3 -60 10 -85 15 -25 5 -99
19 -165 29 -133 22 -152 25 -275 41 -47 6 -96 13 -110 15 -14 2 -54 6 -90 10
-36 4 -81 9 -100 11 -19 3 -57 7 -85 9 -149 13 -183 17 -215 20 -19 2 -84 7
-145 10 -60 4 -126 9 -145 11 -41 5 -936 14 -942 9z"/>
</g>
</svg>
